<svg width="21" height="20" viewBox="0 0 21 20" fill="none" xmlns="http://www.w3.org/2000/svg">
<path d="M9.50594 0.85958C9.80578 -0.0606967 11.1077 -0.0606959 11.4075 0.859581L13.1586 6.23398C13.2928 6.64561 13.6765 6.92418 14.1094 6.92418H19.7702C20.7396 6.92418 21.1419 8.16521 20.3569 8.73398L15.782 12.0486C15.4306 12.3033 15.2835 12.7555 15.418 13.1682L17.1665 18.5349C17.4666 19.4557 16.4133 20.2227 15.629 19.6544L11.0435 16.3321C10.6934 16.0784 10.2201 16.0784 9.87002 16.3321L5.28447 19.6544C4.50022 20.2227 3.44693 19.4557 3.74695 18.5348L5.49552 13.1682C5.62998 12.7555 5.4829 12.3033 5.13144 12.0486L0.556563 8.73398C-0.228443 8.16521 0.173887 6.92418 1.14328 6.92418H6.80404C7.23696 6.92418 7.62072 6.64561 7.75484 6.23398L9.50594 0.85958Z" fill="#070707"/>
</svg>
